<?xml version="1.0" encoding="utf-8"?>
<!-- Generator: Adobe Illustrator 16.0.0, SVG Export Plug-In . SVG Version: 6.00 Build 0)  -->
<!DOCTYPE svg PUBLIC "-//W3C//DTD SVG 1.1//EN" "http://www.w3.org/Graphics/SVG/1.1/DTD/svg11.dtd">
<svg version="1.1" id="Warstwa_2" xmlns="http://www.w3.org/2000/svg" xmlns:xlink="http://www.w3.org/1999/xlink" x="0px" y="0px"
	 width="33.695px" height="35.864px" viewBox="0 0 33.695 35.864" enable-background="new 0 0 33.695 35.864" xml:space="preserve">
<g>
	<path fill="#FFFFFF" d="M8.643,4.07c-0.646,0.667-1.209,1.414-1.66,2.22C6.531,7.1,6.184,7.961,5.96,8.859
		c-0.226,0.897-0.328,1.823-0.313,2.744c0.015,0.923,0.152,1.843,0.407,2.729C6.565,16.105,7.561,17.729,8.899,19
		c1.333,1.273,3.016,2.179,4.815,2.596l0.023,0.008l0.012,0.023l-0.096,0.04l0.036,0.032c-0.91-0.203-1.795-0.524-2.62-0.966
		c-0.823-0.438-1.586-0.99-2.268-1.632c-0.679-0.64-1.278-1.37-1.763-2.168c-0.484-0.798-0.862-1.664-1.118-2.563
		c-0.256-0.896-0.391-1.829-0.402-2.762c-0.01-0.938,0.108-1.871,0.345-2.772C6.333,7.03,7.311,5.364,8.643,4.07z"/>
	<g opacity="0.2">
		<path fill="#222221" d="M23.242,21.214l-7.213,8.149l-7.209-8.098c0,0,2.348,2.511,7.192,2.482
			C21.118,23.72,23.242,21.214,23.242,21.214z"/>
	</g>
	<g>
		<radialGradient id="SVGID_1_" cx="16.0127" cy="25.3428" r="4.2746" gradientUnits="userSpaceOnUse">
			<stop  offset="0.4752" style="stop-color:#168288"/>
			<stop  offset="0.6355" style="stop-color:#157E84"/>
			<stop  offset="0.7954" style="stop-color:#137378"/>
			<stop  offset="0.9549" style="stop-color:#0E6164"/>
			<stop  offset="1" style="stop-color:#0D5A5D"/>
		</radialGradient>
		<path fill="url(#SVGID_1_)" d="M10.746,22.376c1.207,0.582,2.927,1.113,5.185,1.113c2.377-0.013,4.133-0.536,5.35-1.114
			l-5.252,5.934L10.746,22.376z"/>
		<g>
			<path fill="#FFFFFF" d="M20.152,23.171l-4.125,4.66l-4.144-4.655c1.09,0.365,2.438,0.63,4.047,0.63h0.085
				C17.681,23.798,19.052,23.533,20.152,23.171 M23.242,20.638l-0.019,0.021C23.236,20.646,23.242,20.638,23.242,20.638
				L23.242,20.638z M23.223,20.659c-0.217,0.24-2.379,2.487-7.212,2.513c-0.027,0-0.054,0-0.082,0c-4.789,0-7.11-2.481-7.11-2.481
				l7.209,8.098L23.223,20.659L23.223,20.659z"/>
		</g>
	</g>
	<ellipse opacity="0.2" fill="#222221" cx="16.025" cy="12.185" rx="11.24" ry="10.765"/>
	<radialGradient id="SVGID_2_" cx="16.0308" cy="11.4404" r="10.3059" gradientUnits="userSpaceOnUse">
		<stop  offset="0.4752" style="stop-color:#168288"/>
		<stop  offset="0.6355" style="stop-color:#157E84"/>
		<stop  offset="0.7954" style="stop-color:#137378"/>
		<stop  offset="0.9549" style="stop-color:#0E6164"/>
		<stop  offset="1" style="stop-color:#0D5A5D"/>
	</radialGradient>
	<circle fill="url(#SVGID_2_)" stroke="#FFFFFF" stroke-width="1.6274" stroke-miterlimit="10" cx="16.031" cy="11.44" r="10.307"/>
</g>
</svg>
