<?xml version="1.0" encoding="utf-8"?>
<!-- Generator: Adobe Illustrator 16.0.0, SVG Export Plug-In . SVG Version: 6.00 Build 0)  -->
<!DOCTYPE svg PUBLIC "-//W3C//DTD SVG 1.1//EN" "http://www.w3.org/Graphics/SVG/1.1/DTD/svg11.dtd">
<svg version="1.1" id="Warstwa_1" xmlns="http://www.w3.org/2000/svg" xmlns:xlink="http://www.w3.org/1999/xlink" x="0px" y="0px"
	 width="56.531px" height="34.813px" viewBox="0 0 56.531 34.813" enable-background="new 0 0 56.531 34.813" xml:space="preserve">
<g>
	<g>
		<path fill="#FFFFFF" stroke="#C20E1A" stroke-width="0.2361" d="M7.891,0.13c-4.285,0-7.772,3.486-7.772,7.772v19.006
			c0,4.285,3.487,7.772,7.772,7.772H48.64c4.285,0,7.771-3.487,7.771-7.772V7.903c0-4.286-3.486-7.772-7.771-7.772H7.891z"/>
	</g>
	
		<linearGradient id="SVGID_1_" gradientUnits="userSpaceOnUse" x1="-2508.7793" y1="3125.8215" x2="-2508.7793" y2="3154.7034" gradientTransform="matrix(1 0 0 -1 2537.0449 3157.6685)">
		<stop  offset="0" style="stop-color:#881710"/>
		<stop  offset="1" style="stop-color:#C20E1A"/>
	</linearGradient>
	<path fill="url(#SVGID_1_)" d="M7.891,31.846c-2.727,0-4.938-2.211-4.938-4.938V7.903c0-2.728,2.211-4.938,4.938-4.938H48.64
		c2.727,0,4.938,2.211,4.938,4.938v19.006c0,2.728-2.211,4.938-4.938,4.938L7.891,31.846L7.891,31.846z"/>
	<g enable-background="new    ">
		<path fill="#FFFFFF" d="M6.706,8.319h1.866v2.98h0.021c0.146-0.26,0.302-0.521,0.448-0.771l1.355-2.21h2.313l-2.23,2.991
			l2.313,4.033h-2.178l-1.48-2.845l-0.563,0.719v2.126H6.706V8.319z"/>
		<path fill="#FFFFFF" d="M15.315,8.319v3.991c0,1.063,0.365,1.657,1.105,1.657c0.75,0,1.115-0.542,1.115-1.657V8.319h1.887v3.877
			c0,2.168-1.084,3.262-3.054,3.262c-1.917,0-2.939-1.052-2.939-3.304V8.319H15.315z"/>
		<path fill="#FFFFFF" d="M20.704,8.423c0.511-0.084,1.251-0.156,2.314-0.156c1.011,0,1.74,0.188,2.23,0.563
			c0.479,0.354,0.803,0.97,0.803,1.688c0,0.709-0.24,1.323-0.688,1.729c-0.563,0.501-1.386,0.729-2.334,0.729
			c-0.188,0-0.344-0.021-0.458-0.021v2.387h-1.866V8.423z M22.57,11.518c0.104,0.011,0.229,0.021,0.427,0.021
			c0.729,0,1.188-0.375,1.188-0.979c0-0.521-0.344-0.876-1.063-0.876c-0.271,0-0.458,0.021-0.552,0.042V11.518z"/>
	</g>
	<text transform="matrix(1 0 0 1 27.8022 15.343)" fill="#FFFFFF" font-family="'MyriadPro-Black'" font-size="10.4231"> </text>
	<g enable-background="new    ">
		<path fill="#FFFFFF" d="M31.554,8.423c0.427-0.084,1.354-0.156,2.22-0.156c1.001,0,1.604,0.072,2.146,0.344
			c0.553,0.261,0.949,0.761,0.949,1.448c0,0.584-0.323,1.157-1.146,1.47v0.021c0.854,0.24,1.375,0.876,1.375,1.71
			c0,0.667-0.322,1.188-0.792,1.542c-0.521,0.396-1.396,0.625-2.897,0.625c-0.854,0-1.479-0.052-1.854-0.125V8.423z M33.419,11.018
			h0.375c0.803,0,1.188-0.281,1.188-0.729c0-0.406-0.313-0.667-0.948-0.667c-0.313,0-0.49,0.021-0.615,0.042V11.018z M33.419,14.03
			c0.136,0.021,0.303,0.021,0.542,0.021c0.625,0,1.157-0.25,1.157-0.876c0-0.594-0.542-0.823-1.251-0.823h-0.448V14.03z"/>
		<path fill="#FFFFFF" d="M42.54,12.508h-2.521v1.293h2.824v1.542h-4.711V8.319h4.564v1.543h-2.678v1.125h2.521V12.508z"/>
		<path fill="#FFFFFF" d="M43.458,14.343l3.105-4.43V9.871H43.75V8.319h5.252v1.073l-3.012,4.356v0.042h3.064v1.553h-5.597V14.343z"
			/>
	</g>
	<g enable-background="new    ">
		<path fill="#FFFFFF" d="M6.529,18.846C7.04,18.762,7.78,18.69,8.843,18.69c1.011,0,1.74,0.188,2.229,0.563
			c0.479,0.354,0.803,0.97,0.803,1.688c0,0.709-0.239,1.323-0.688,1.729C10.625,23.171,9.801,23.4,8.853,23.4
			c-0.188,0-0.344-0.021-0.458-0.021v2.387H6.529V18.846z M8.395,21.941c0.104,0.011,0.229,0.021,0.427,0.021
			c0.729,0,1.188-0.375,1.188-0.979c0-0.521-0.344-0.876-1.063-0.876c-0.271,0-0.458,0.021-0.552,0.042V21.941z"/>
		<path fill="#FFFFFF" d="M12.803,18.846c0.532-0.084,1.334-0.156,2.272-0.156c1.073,0,1.845,0.146,2.376,0.552
			c0.448,0.345,0.688,0.845,0.688,1.522c0,0.875-0.656,1.49-1.198,1.698v0.031c0.459,0.208,0.72,0.656,0.896,1.261
			c0.208,0.72,0.438,1.741,0.573,2.012h-1.918c-0.104-0.208-0.292-0.75-0.489-1.626c-0.188-0.834-0.448-1.011-1.032-1.011h-0.302
			v2.637h-1.866V18.846z M14.669,21.775h0.489c0.709,0,1.115-0.345,1.115-0.865c0-0.521-0.344-0.823-0.969-0.823
			c-0.354,0-0.542,0.021-0.636,0.042V21.775z"/>
		<path fill="#FFFFFF" d="M22.236,25.88c-2.178,0-3.376-1.636-3.376-3.585c0-2.042,1.334-3.668,3.491-3.668
			c2.261,0,3.407,1.678,3.407,3.554c0,2.262-1.354,3.699-3.512,3.699H22.236z M22.33,24.39c0.907,0,1.438-0.875,1.438-2.146
			c0-1.209-0.542-2.126-1.459-2.126c-0.906,0-1.459,0.917-1.459,2.137c-0.011,1.261,0.553,2.136,1.459,2.136H22.33z"/>
		<path fill="#FFFFFF" d="M27.76,25.766l-1.615-7.024h2.022l0.406,2.605c0.125,0.813,0.25,1.74,0.354,2.47h0.021
			c0.114-0.792,0.261-1.636,0.417-2.501l0.448-2.574h2.012l0.438,2.699c0.125,0.813,0.219,1.532,0.313,2.324h0.021
			c0.104-0.792,0.229-1.615,0.354-2.449l0.417-2.574h1.907l-1.73,7.024h-2.053l-0.469-2.751c-0.104-0.615-0.198-1.271-0.292-2.105
			H30.71c-0.115,0.823-0.209,1.49-0.334,2.105l-0.531,2.751H27.76z"/>
		<path fill="#FFFFFF" d="M37.965,18.741v7.024h-1.887v-7.024H37.965z"/>
		<path fill="#FFFFFF" d="M38.83,24.766l3.106-4.43v-0.042h-2.814v-1.553h5.253v1.073l-3.012,4.356v0.042h3.063v1.553H38.83V24.766z
			"/>
		<path fill="#FFFFFF" d="M47.023,18.741h1.886v4.336c0,2.042-0.979,2.803-2.668,2.803c-0.386,0-0.896-0.052-1.24-0.166l0.198-1.512
			c0.229,0.063,0.521,0.115,0.823,0.115c0.604,0,1.001-0.271,1.001-1.24V18.741z"/>
		<path fill="#FFFFFF" d="M52.036,18.741v7.024h-1.887v-7.024H52.036z"/>
	</g>
</g>
</svg>
