<?xml version="1.0" encoding="utf-8"?>
<!-- Generator: Adobe Illustrator 16.0.0, SVG Export Plug-In . SVG Version: 6.00 Build 0)  -->
<!DOCTYPE svg PUBLIC "-//W3C//DTD SVG 1.1//EN" "http://www.w3.org/Graphics/SVG/1.1/DTD/svg11.dtd">
<svg version="1.1" id="Warstwa_1" xmlns="http://www.w3.org/2000/svg" xmlns:xlink="http://www.w3.org/1999/xlink" x="0px" y="0px"
	 width="56.531px" height="34.813px" viewBox="0 0 56.531 34.813" enable-background="new 0 0 56.531 34.813" xml:space="preserve">
<g>
	<g>
		<path fill="#FFFFFF" stroke="#C4007A" stroke-width="0.2361" d="M7.891,0.13c-4.285,0-7.772,3.486-7.772,7.772v19.006
			c0,4.285,3.487,7.772,7.772,7.772H48.64c4.285,0,7.771-3.487,7.771-7.772V7.903c0-4.286-3.486-7.772-7.771-7.772H7.891z"/>
	</g>
	
		<linearGradient id="SVGID_1_" gradientUnits="userSpaceOnUse" x1="-2508.7793" y1="3125.8215" x2="-2508.7793" y2="3154.7034" gradientTransform="matrix(1 0 0 -1 2537.0449 3157.6685)">
		<stop  offset="0" style="stop-color:#5A287F"/>
		<stop  offset="1" style="stop-color:#C4007A"/>
	</linearGradient>
	<path fill="url(#SVGID_1_)" d="M7.891,31.846c-2.727,0-4.938-2.211-4.938-4.938V7.903c0-2.728,2.211-4.938,4.938-4.938H48.64
		c2.727,0,4.938,2.211,4.938,4.938v19.006c0,2.728-2.211,4.938-4.938,4.938L7.891,31.846L7.891,31.846z"/>
	<g enable-background="new    ">
		<path fill="#FFFFFF" d="M6.913,15.343L5.621,8.319h1.616l0.325,2.605c0.1,0.813,0.2,1.741,0.283,2.47h0.017
			c0.091-0.792,0.208-1.636,0.333-2.501l0.358-2.574h1.608l0.35,2.699c0.1,0.813,0.175,1.532,0.25,2.324h0.017
			c0.083-0.792,0.183-1.615,0.283-2.449l0.333-2.574h1.525l-1.383,7.024H9.895L9.52,12.592c-0.083-0.615-0.158-1.271-0.233-2.105
			H9.27c-0.091,0.823-0.167,1.49-0.267,2.105l-0.425,2.751H6.913z"/>
		<path fill="#FFFFFF" d="M15.451,15.343v-2.835l-1.767-4.189h1.725l0.475,1.584c0.15,0.49,0.258,0.844,0.383,1.303h0.017
			c0.108-0.428,0.217-0.824,0.358-1.303L17.1,8.319h1.7l-1.841,4.117v2.908H15.451z"/>
		<path fill="#FFFFFF" d="M19.779,15.343V8.319h1.774l0.892,2.157c0.308,0.698,0.633,1.636,0.883,2.46h0.025
			c-0.083-0.928-0.117-1.907-0.117-2.95V8.319h1.375v7.024h-1.583l-0.958-2.334c-0.308-0.74-0.675-1.688-0.941-2.533h-0.033
			c0.042,0.949,0.058,2.001,0.058,3.137v1.73H19.779z"/>
		<path fill="#FFFFFF" d="M27.708,13.717l-0.316,1.626h-1.558l1.633-7.024h2l1.675,7.024h-1.625l-0.358-1.626H27.708z M28.95,12.331
			l-0.259-1.261c-0.083-0.396-0.191-0.969-0.275-1.386h-0.017c-0.083,0.417-0.167,0.99-0.25,1.386l-0.242,1.261H28.95z"/>
		<path fill="#FFFFFF" d="M33.612,8.319h1.508v4.335c0,2.043-0.783,2.804-2.133,2.804c-0.308,0-0.716-0.052-0.991-0.167l0.158-1.511
			c0.184,0.063,0.417,0.115,0.658,0.115c0.483,0,0.8-0.271,0.8-1.24V8.319z"/>
		<path fill="#FFFFFF" d="M41.447,12.821c-0.025-0.792-0.033-1.73-0.033-2.824h-0.025c-0.175,0.927-0.408,1.98-0.591,2.751
			l-0.559,2.449h-1.175l-0.467-2.449c-0.149-0.75-0.316-1.792-0.449-2.751h-0.017c-0.034,0.99-0.059,2.032-0.084,2.824l-0.092,2.522
			h-1.383l0.351-7.024h2.024l0.366,1.897c0.158,0.771,0.325,1.709,0.441,2.563h0.025c0.158-0.854,0.342-1.844,0.508-2.584
			l0.425-1.876h1.975l0.283,7.024h-1.458L41.447,12.821z"/>
		<path fill="#FFFFFF" d="M45.986,8.319v7.024h-1.508V8.319H45.986z"/>
		<path fill="#FFFFFF" d="M48.671,8.319h1.508v4.335c0,2.043-0.783,2.804-2.133,2.804c-0.309,0-0.717-0.052-0.991-0.167l0.158-1.511
			c0.183,0.063,0.416,0.115,0.658,0.115c0.483,0,0.8-0.271,0.8-1.24V8.319z"/>
	</g>
	<g enable-background="new    ">
		<path fill="#FFFFFF" d="M5.278,18.846c0.299-0.084,0.948-0.156,1.554-0.156c0.7,0,1.123,0.072,1.502,0.344
			c0.387,0.261,0.664,0.761,0.664,1.449c0,0.583-0.226,1.156-0.802,1.469v0.021c0.598,0.239,0.963,0.875,0.963,1.709
			c0,0.666-0.226,1.188-0.554,1.542c-0.365,0.396-0.978,0.626-2.028,0.626c-0.598,0-1.036-0.053-1.298-0.125V18.846z M6.583,21.441
			h0.263c0.562,0,0.832-0.281,0.832-0.729c0-0.406-0.219-0.667-0.664-0.667c-0.219,0-0.343,0.021-0.43,0.042V21.441z M6.583,24.453
			c0.095,0.02,0.211,0.02,0.379,0.02c0.438,0,0.81-0.25,0.81-0.875c0-0.594-0.379-0.823-0.875-0.823H6.583V24.453z"/>
		<path fill="#FFFFFF" d="M12.967,22.931h-1.765v1.292h1.977v1.543H9.882v-7.024h3.195v1.542h-1.875v1.126h1.765V22.931z"/>
		<path fill="#FFFFFF" d="M13.61,24.766l2.173-4.43v-0.041h-1.969v-1.554h3.676v1.073l-2.108,4.356v0.042h2.145v1.553H13.61V24.766z
			"/>
	</g>
	<text transform="matrix(0.7 0 0 1 17.8101 25.7659)" fill="#FFFFFF" font-family="'MyriadPro-Black'" font-size="10.4231"> </text>
	<g enable-background="new    ">
		<path fill="#FFFFFF" d="M19.483,18.846c0.357-0.084,0.875-0.156,1.619-0.156c0.708,0,1.218,0.188,1.561,0.563
			c0.335,0.354,0.562,0.969,0.562,1.688c0,0.708-0.168,1.323-0.481,1.729c-0.394,0.5-0.97,0.73-1.634,0.73
			c-0.131,0-0.241-0.021-0.321-0.021v2.387h-1.306V18.846z M20.789,21.942c0.073,0.01,0.161,0.021,0.299,0.021
			c0.511,0,0.832-0.376,0.832-0.979c0-0.521-0.241-0.876-0.744-0.876c-0.19,0-0.321,0.021-0.387,0.042V21.942z"/>
		<path fill="#FFFFFF" d="M23.875,18.846c0.372-0.084,0.934-0.156,1.59-0.156c0.751,0,1.291,0.146,1.663,0.553
			c0.314,0.344,0.481,0.844,0.481,1.521c0,0.875-0.459,1.49-0.839,1.698v0.031c0.321,0.208,0.503,0.657,0.627,1.261
			c0.146,0.719,0.306,1.74,0.401,2.012h-1.342c-0.073-0.209-0.204-0.75-0.343-1.626c-0.131-0.833-0.313-1.011-0.722-1.011h-0.211
			v2.637h-1.306V18.846z M25.181,21.774h0.343c0.496,0,0.78-0.344,0.78-0.864s-0.241-0.823-0.678-0.823
			c-0.248,0-0.379,0.021-0.445,0.041V21.774z"/>
		<path fill="#FFFFFF" d="M30.48,25.881c-1.524,0-2.365-1.637-2.365-3.586c0-2.043,0.935-3.668,2.445-3.668
			c1.582,0,2.385,1.678,2.385,3.554c0,2.261-0.948,3.7-2.458,3.7H30.48z M30.545,24.391c0.635,0,1.006-0.876,1.006-2.147
			c0-1.209-0.379-2.126-1.021-2.126c-0.635,0-1.021,0.917-1.021,2.137c-0.007,1.261,0.387,2.137,1.021,2.137H30.545z"/>
		<path fill="#FFFFFF" d="M34.347,25.766l-1.131-7.024h1.415l0.285,2.605c0.087,0.813,0.175,1.741,0.247,2.47h0.015
			c0.081-0.791,0.183-1.636,0.292-2.501l0.313-2.574h1.408l0.306,2.699c0.088,0.813,0.153,1.532,0.22,2.324h0.014
			c0.073-0.792,0.161-1.615,0.248-2.449l0.292-2.574h1.335l-1.211,7.024h-1.437l-0.328-2.752c-0.073-0.614-0.139-1.271-0.204-2.104
			h-0.015c-0.081,0.823-0.146,1.49-0.233,2.104l-0.372,2.752H34.347z"/>
		<path fill="#FFFFFF" d="M41.49,18.741v7.024h-1.32v-7.024H41.49z"/>
		<path fill="#FFFFFF" d="M42.096,24.766l2.173-4.43v-0.041H42.3v-1.554h3.676v1.073l-2.107,4.356v0.042h2.144v1.553h-3.916V24.766z
			"/>
		<path fill="#FFFFFF" d="M47.831,18.741h1.32v4.335c0,2.043-0.686,2.805-1.867,2.805c-0.271,0-0.628-0.053-0.868-0.168l0.139-1.511
			c0.16,0.063,0.364,0.114,0.576,0.114c0.423,0,0.7-0.271,0.7-1.24V18.741z"/>
		<path fill="#FFFFFF" d="M51.339,18.741v7.024h-1.32v-7.024H51.339z"/>
	</g>
</g>
</svg>
