<?xml version="1.0" encoding="utf-8"?>
<!-- Generator: Adobe Illustrator 16.0.0, SVG Export Plug-In . SVG Version: 6.00 Build 0)  -->
<!DOCTYPE svg PUBLIC "-//W3C//DTD SVG 1.1//EN" "http://www.w3.org/Graphics/SVG/1.1/DTD/svg11.dtd">
<svg version="1.1" id="Warstwa_1" xmlns="http://www.w3.org/2000/svg" xmlns:xlink="http://www.w3.org/1999/xlink" x="0px" y="0px"
	 width="56.531px" height="34.813px" viewBox="0 0 56.531 34.813" enable-background="new 0 0 56.531 34.813" xml:space="preserve">
<g>
	<g>
		<path fill="#FFFFFF" stroke="#0E88CB" stroke-width="0.2361" d="M7.891,0.13c-4.285,0-7.772,3.486-7.772,7.772v19.006
			c0,4.285,3.487,7.772,7.772,7.772H48.64c4.285,0,7.771-3.487,7.771-7.772V7.903c0-4.286-3.486-7.772-7.771-7.772H7.891z"/>
	</g>
	
		<linearGradient id="SVGID_1_" gradientUnits="userSpaceOnUse" x1="-2508.7793" y1="3125.8215" x2="-2508.7793" y2="3154.7034" gradientTransform="matrix(1 0 0 -1 2537.0449 3157.6685)">
		<stop  offset="0" style="stop-color:#24517D"/>
		<stop  offset="1" style="stop-color:#0089CE"/>
	</linearGradient>
	<path fill="url(#SVGID_1_)" d="M7.891,31.846c-2.727,0-4.938-2.211-4.938-4.938V7.903c0-2.728,2.211-4.938,4.938-4.938H48.64
		c2.727,0,4.938,2.211,4.938,4.938v19.006c0,2.728-2.211,4.938-4.938,4.938L7.891,31.846L7.891,31.846z"/>
	<g enable-background="new    ">
		<path fill="#FFFFFF" d="M7.224,15.343L5.932,8.319h1.616l0.325,2.605c0.1,0.813,0.2,1.741,0.284,2.47h0.017
			c0.091-0.792,0.208-1.636,0.333-2.501l0.358-2.574h1.608l0.35,2.699c0.1,0.813,0.175,1.532,0.25,2.324h0.017
			c0.083-0.792,0.183-1.615,0.283-2.449l0.333-2.574h1.525l-1.383,7.024h-1.641l-0.375-2.751c-0.083-0.615-0.158-1.271-0.233-2.105
			H9.581c-0.091,0.823-0.167,1.49-0.267,2.105L8.89,15.343H7.224z"/>
		<path fill="#FFFFFF" d="M15.187,15.343v-2.835L13.42,8.319h1.725l0.475,1.584c0.15,0.49,0.258,0.844,0.383,1.303h0.017
			c0.108-0.428,0.217-0.824,0.358-1.303l0.458-1.584h1.7l-1.841,4.117v2.908H15.187z"/>
		<path fill="#FFFFFF" d="M19.006,15.343V13.05l-0.6,0.49v-1.271l0.6-0.49v-3.46h1.508v2.22l1.016-0.834v1.271l-1.016,0.833v1.959
			h2.158v1.574H19.006z"/>
		<path fill="#FFFFFF" d="M28.366,15.343h-0.833c-0.058,0.167-0.108,0.375-0.108,0.594c0,0.344,0.2,0.604,0.466,0.604
			c0.158,0,0.283-0.032,0.358-0.063l0.2,0.844c-0.25,0.24-0.633,0.365-0.925,0.365c-0.625,0-1.008-0.396-1.008-1.198
			c0-0.479,0.183-0.99,0.225-1.146l-0.358-1.626h-1.45l-0.316,1.626h-1.558l1.633-7.024h2L28.366,15.343z M26.175,12.331
			l-0.258-1.261c-0.083-0.396-0.191-0.969-0.275-1.386h-0.017c-0.083,0.417-0.167,0.99-0.25,1.386l-0.242,1.261H26.175z"/>
		<path fill="#FFFFFF" d="M33.044,15.156c-0.208,0.135-0.741,0.292-1.408,0.292c-2.1,0-3.024-1.636-3.024-3.501
			c0-2.47,1.45-3.731,3.125-3.731c0.641,0,1.166,0.156,1.399,0.302l-0.292,1.49c-0.241-0.125-0.592-0.25-1.041-0.25
			c-0.858,0-1.608,0.636-1.608,2.063c0,1.271,0.608,2.063,1.642,2.063c0.358,0,0.767-0.083,1-0.198L33.044,15.156z"/>
		<path fill="#FFFFFF" d="M33.523,14.343l2.483-4.429V9.872h-2.25V8.319h4.199v1.074l-2.408,4.356v0.042h2.45v1.553h-4.475V14.343z"
			/>
		<path fill="#FFFFFF" d="M38.768,15.343V8.319h1.774l0.892,2.157c0.309,0.698,0.634,1.636,0.883,2.46h0.025
			c-0.083-0.928-0.116-1.907-0.116-2.95V8.319H43.6v7.024h-1.583l-0.958-2.334c-0.308-0.74-0.675-1.688-0.941-2.533h-0.033
			c0.042,0.949,0.059,2.001,0.059,3.137v1.73H38.768z"/>
		<path fill="#FFFFFF" d="M46.155,8.319v7.024h-1.508V8.319H46.155z"/>
		<path fill="#FFFFFF" d="M50.713,12.508h-2.016v1.292h2.258v1.542H47.19V8.319h3.648v1.542h-2.141v1.125h2.016V12.508z"/>
	</g>
	<g enable-background="new    ">
		<path fill="#FFFFFF" d="M16.405,18.741v3.991c0,1.063,0.365,1.657,1.105,1.657c0.75,0,1.115-0.542,1.115-1.657v-3.991h1.887v3.877
			c0,2.168-1.084,3.262-3.054,3.262c-1.917,0-2.939-1.052-2.939-3.304v-3.835H16.405z"/>
		<path fill="#FFFFFF" d="M23.857,25.766v-7.024h2.22l1.115,2.157c0.386,0.698,0.792,1.637,1.105,2.46h0.031
			c-0.104-0.928-0.146-1.907-0.146-2.949v-1.668h1.719v7.024h-1.98l-1.198-2.334c-0.386-0.74-0.844-1.688-1.178-2.533h-0.042
			c0.052,0.948,0.073,2.001,0.073,3.137v1.73H23.857z"/>
		<path fill="#FFFFFF" d="M33.05,24.14l-0.396,1.626h-1.948l2.042-7.024h2.502l2.095,7.024h-2.032l-0.448-1.626H33.05z
			 M34.603,22.754l-0.322-1.261c-0.105-0.396-0.24-0.97-0.345-1.387h-0.021c-0.104,0.417-0.209,0.99-0.313,1.387L33.3,22.754H34.603
			z"/>
		<path fill="#FFFFFF" d="M38.366,23.89c0.428,0.219,1.115,0.438,1.824,0.438c0.646,0,0.958-0.219,0.958-0.573
			c0-0.344-0.313-0.531-1.104-0.802c-1.188-0.428-1.98-1.074-1.98-2.116c0-1.24,1.053-2.199,2.824-2.199
			c0.834,0,1.438,0.157,1.896,0.354l-0.396,1.512c-0.302-0.136-0.822-0.334-1.521-0.334c-0.572,0-0.885,0.209-0.885,0.521
			c0,0.354,0.375,0.489,1.26,0.823c1.262,0.469,1.824,1.136,1.824,2.115c0,1.209-0.938,2.241-2.99,2.241
			c-0.845,0-1.668-0.219-2.064-0.428L38.366,23.89z"/>
	</g>
</g>
</svg>
